<?xml version="1.0" encoding="UTF-8" standalone="no"?>
<!-- Created with Inkscape (http://www.inkscape.org/) -->

<svg
   xmlns:dc="http://purl.org/dc/elements/1.1/"
   xmlns:cc="http://creativecommons.org/ns#"
   xmlns:rdf="http://www.w3.org/1999/02/22-rdf-syntax-ns#"
   xmlns:svg="http://www.w3.org/2000/svg"
   xmlns="http://www.w3.org/2000/svg"
   xmlns:sodipodi="http://sodipodi.sourceforge.net/DTD/sodipodi-0.dtd"
   xmlns:inkscape="http://www.inkscape.org/namespaces/inkscape"
   id="svg2"
   version="1.1"
   inkscape:version="0.48.2 r9819"
   width="108.1265"
   height="108.17387"
   xml:space="preserve"
   sodipodi:docname="OMRSsig2.eps"><metadata
     id="metadata8"><rdf:RDF><cc:Work
         rdf:about=""><dc:format>image/svg+xml</dc:format><dc:type
           rdf:resource="http://purl.org/dc/dcmitype/StillImage" /><dc:title></dc:title></cc:Work></rdf:RDF></metadata><defs
     id="defs6" /><sodipodi:namedview
     pagecolor="#000000"
     bordercolor="#666666"
     borderopacity="1"
     objecttolerance="10"
     gridtolerance="10"
     guidetolerance="10"
     inkscape:pageopacity="0.39215686"
     inkscape:pageshadow="2"
     inkscape:window-width="1063"
     inkscape:window-height="779"
     id="namedview4"
     showgrid="false"
     fit-margin-top="0"
     fit-margin-left="0"
     fit-margin-right="0"
     fit-margin-bottom="0"
     inkscape:zoom="1.8272301"
     inkscape:cx="107.47383"
     inkscape:cy="51.962077"
     inkscape:window-x="106"
     inkscape:window-y="40"
     inkscape:window-maximized="0"
     inkscape:current-layer="g10" /><g
     id="g10"
     inkscape:groupmode="layer"
     inkscape:label="ink_ext_XXXXXX"
     transform="matrix(1.25,0,0,-1.25,0,108.17388)"><path
       inkscape:connector-curvature="0"
       id="path14"
       style="fill:#f1511b;fill-opacity:1;fill-rule:nonzero;stroke:none"
       d="m 23.4355,63.0656 c 5.0696,5.0684 12.0743,8.2039 19.8118,8.2039 7.7175,0 14.7047,-3.1211 19.7703,-8.1664 l 0.0195,18.6563 c -5.9297,3.0547 -12.6601,4.7797 -19.7898,4.7797 -7.1328,0 -13.8996,-1.943 -19.8332,-4.9996 l 0.0214,-18.4739" /><path
       inkscape:connector-curvature="0"
       id="path16"
       style="fill:#eea00c;fill-opacity:1;fill-rule:nonzero;stroke:none"
       d="M 63.0371,23.4746 C 57.9688,18.4063 50.968,15.2715 43.2305,15.2715 c -7.7176,0 -14.7051,3.1191 -19.7735,8.166 L 23.4355,4.78125 C 29.3691,1.72656 36.0977,0 43.2305,0 50.3633,0 57.0938,1.72656 63.0234,4.78125 l 0.0137,18.69335" /><path
       inkscape:connector-curvature="0"
       id="path18"
       style="fill:#564ca9;fill-opacity:1;fill-rule:nonzero;stroke:none"
       d="m 23.4734,23.4512 c -5.0679,5.0683 -8.2039,12.0683 -8.2039,19.8066 0,7.7172 3.1211,14.7047 8.166,19.7735 L 4.7793,63.0508 C 1.72461,57.1184 0,50.3906 0,43.2578 0,36.125 1.72461,29.3945 4.78125,23.4629 L 23.4734,23.4512" /><path
       inkscape:connector-curvature="0"
       id="path20"
       style="fill:#159281;fill-opacity:1;fill-rule:nonzero;stroke:none"
       d="m 63.0273,63.1039 c 5.0684,-5.0676 8.2051,-12.0726 8.2051,-19.8109 0,-7.7168 -3.1211,-14.7051 -8.1679,-19.7696 l 18.6574,-0.0195 c 3.0547,5.9297 4.7793,12.6602 4.7793,19.7891 0,7.134 -1.7246,13.8648 -4.7805,19.798 l -18.6934,0.0129" /><text
       xml:space="preserve"
       style="font-size:55px;font-style:normal;font-variant:normal;font-weight:normal;font-stretch:normal;line-height:125%;letter-spacing:0px;word-spacing:0px;fill:#ffffff;fill-opacity:1;stroke:none;font-family:Avenir;-inkscape-font-specification:Avenir"
       x="216.17419"
       y="97.776749"
       id="text3049"
       sodipodi:linespacing="125%"
       transform="matrix(0.8,0,0,-0.8,0,86.54)"><tspan
         sodipodi:role="line"
         id="tspan3051"
         x="216.17419"
         y="97.776749" /></text>
</g></svg>